<?xml version="1.0" standalone="no"?>
<!DOCTYPE svg PUBLIC "-//W3C//DTD SVG 20010904//EN"
 "http://www.w3.org/TR/2001/REC-SVG-20010904/DTD/svg10.dtd">
<svg version="1.0" xmlns="http://www.w3.org/2000/svg"
 width="500.000000pt" height="500.000000pt" viewBox="0 0 500.000000 500.000000"
 preserveAspectRatio="xMidYMid meet">

<g transform="translate(0.000000,500.000000) scale(0.100000,-0.100000)"
fill="#000000" stroke="none">
<path d="M1778 3553 c12 -2 32 -2 45 0 12 2 2 4 -23 4 -25 0 -35 -2 -22 -4z"/>
<path d="M1387 3458 c-15 -188 -4 -231 38 -150 73 138 200 197 410 190 l90 -3
3 -522 2 -523 100 0 100 0 0 525 0 525 100 0 c144 0 235 -24 308 -81 29 -22
84 -95 100 -132 7 -16 18 -27 25 -24 9 3 11 34 8 123 -2 65 -5 126 -6 134 -2
13 -81 15 -637 18 l-635 2 -6 -82z m453 62 c0 -5 -18 -10 -40 -10 -22 0 -40 5
-40 10 0 6 18 10 40 10 22 0 40 -4 40 -10z"/>
<path d="M1778 3483 c12 -2 32 -2 45 0 12 2 2 4 -23 4 -25 0 -35 -2 -22 -4z"/>
<path d="M2853 3010 c-46 -21 -83 -43 -83 -48 0 -5 7 -26 15 -45 27 -66 25
-74 -103 -385 -25 -61 -28 -74 -15 -79 8 -3 18 -2 23 3 5 5 39 83 75 174 37
91 68 166 69 167 3 3 110 -251 135 -319 l11 -28 106 0 c127 0 123 -20 36 190
-33 80 -85 203 -114 274 -30 71 -58 131 -63 133 -6 1 -47 -15 -92 -37z"/>
<path d="M1770 2400 c0 -5 11 -10 25 -10 24 0 25 -2 25 -75 0 -43 4 -75 10
-75 6 0 10 32 10 75 0 68 2 75 20 75 11 0 20 5 20 10 0 6 -25 10 -55 10 -30 0
-55 -4 -55 -10z"/>
<path d="M1920 2325 c0 -50 4 -85 10 -85 6 0 10 18 10 40 l0 40 40 0 40 0 0
-40 c0 -29 4 -40 15 -40 12 0 15 16 15 85 0 69 -3 85 -15 85 -10 0 -15 -11
-15 -35 0 -34 -1 -35 -40 -35 -39 0 -40 1 -40 35 0 19 -4 35 -10 35 -6 0 -10
-35 -10 -85z"/>
<path d="M2090 2325 l0 -85 55 0 c30 0 55 5 55 10 0 6 -18 10 -40 10 -38 0
-40 2 -40 30 0 28 3 30 35 30 19 0 35 5 35 10 0 6 -16 10 -35 10 -31 0 -35 3
-35 25 0 23 4 25 40 25 22 0 40 5 40 10 0 6 -25 10 -55 10 l-55 0 0 -85z"/>
<path d="M2300 2400 c0 -5 9 -10 20 -10 18 0 20 -7 20 -75 0 -60 3 -75 15 -75
12 0 15 15 15 75 0 68 2 75 20 75 11 0 20 5 20 10 0 6 -25 10 -55 10 -30 0
-55 -4 -55 -10z"/>
<path d="M2450 2325 c0 -50 4 -85 10 -85 6 0 10 14 10 30 0 19 5 30 14 30 8 0
23 -13 33 -30 9 -16 24 -30 31 -30 11 0 9 8 -6 31 -18 29 -19 33 -4 59 15 25
15 30 -1 54 -13 20 -26 26 -52 26 l-35 0 0 -85z m65 30 c0 -23 -5 -31 -22 -33
-20 -3 -23 1 -23 33 0 32 3 36 23 33 17 -2 22 -10 22 -33z"/>
<path d="M2600 2325 c0 -50 4 -85 10 -85 6 0 10 35 10 85 0 50 -4 85 -10 85
-6 0 -10 -35 -10 -85z"/>
<path d="M2660 2325 c0 -69 3 -85 15 -85 10 0 15 10 15 30 0 25 4 30 23 30 31
0 47 18 47 55 0 41 -16 55 -62 55 l-38 0 0 -85z m64 59 c19 -7 21 -35 4 -52
-23 -23 -38 -13 -38 23 0 35 5 40 34 29z"/>
<path d="M2800 2325 l0 -85 50 0 c28 0 50 5 50 10 0 6 -18 10 -40 10 l-40 0 0
75 c0 43 -4 75 -10 75 -6 0 -10 -35 -10 -85z"/>
<path d="M2940 2325 l0 -85 55 0 c30 0 55 5 55 10 0 6 -20 10 -45 10 -43 0
-45 1 -45 30 0 28 2 30 40 30 22 0 40 5 40 10 0 6 -18 10 -40 10 -36 0 -40 3
-40 25 0 23 4 25 45 25 25 0 45 5 45 10 0 6 -25 10 -55 10 l-55 0 0 -85z"/>
<path d="M3183 2332 c-18 -42 -33 -80 -33 -85 0 -15 19 -6 25 13 5 15 15 20
40 20 25 0 35 -5 40 -20 3 -11 12 -20 20 -20 10 0 5 20 -17 78 -17 42 -34 80
-37 84 -3 4 -21 -28 -38 -70z m50 -12 c4 -15 0 -20 -14 -20 -20 0 -23 8 -13
34 7 20 20 13 27 -14z"/>
<path d="M1926 2060 c-4 -61 -12 -125 -18 -143 -13 -37 -46 -77 -65 -77 -7 0
-13 -9 -13 -20 0 -19 7 -20 200 -20 184 0 200 1 200 18 0 9 -10 22 -22 27 -52
24 -77 107 -78 258 l0 67 -99 0 -98 0 -7 -110z"/>
<path d="M2530 2150 c-6 -11 -31 -71 -55 -133 -80 -204 -181 -451 -207 -502
-49 -100 -61 -115 -163 -190 -34 -25 -2 -32 138 -31 140 1 162 10 108 42 -41
24 -52 61 -41 129 7 46 39 131 177 473 4 10 81 12 355 10 l350 -3 85 -205
c124 -302 134 -330 131 -364 -2 -21 -10 -34 -25 -41 -13 -5 -23 -15 -23 -22 0
-10 44 -13 190 -13 134 0 190 3 190 11 0 6 -19 28 -42 49 -59 52 -101 125
-173 303 -34 84 -95 232 -135 330 l-74 177 -102 0 c-57 0 -105 -3 -107 -7 -3
-5 8 -36 23 -70 53 -116 89 -103 -289 -103 -182 0 -331 2 -331 4 0 2 14 36 30
76 17 40 30 79 30 86 0 21 -28 17 -40 -6z"/>
</g>
</svg>
